<?xml version="1.0" standalone="no"?>
<!DOCTYPE svg PUBLIC "-//W3C//DTD SVG 20010904//EN"
 "http://www.w3.org/TR/2001/REC-SVG-20010904/DTD/svg10.dtd">
<svg version="1.0" xmlns="http://www.w3.org/2000/svg"
 width="130.000000pt" height="130.000000pt" viewBox="0 0 130.000000 130.000000"
 preserveAspectRatio="xMidYMid meet">

<g transform="translate(0.000000,130.000000) scale(0.100000,-0.100000)"
fill="#ffc86b" stroke="none">
<path d="M567 1202 c-23 -25 -22 -31 10 -64 l27 -29 -204 -204 -204 -205 -38
37 c-37 36 -38 36 -58 18 -27 -24 -25 -33 12 -72 l32 -33 -32 -33 c-37 -39
-39 -48 -12 -72 20 -18 21 -18 58 18 l38 37 204 -205 204 -204 -27 -29 c-32
-34 -33 -43 -7 -67 20 -18 21 -18 53 13 l33 32 31 -32 c32 -31 33 -31 53 -13
26 24 25 33 -7 67 l-27 29 204 204 204 205 38 -37 c37 -36 38 -36 58 -18 27
24 25 33 -12 72 l-32 33 32 33 c37 39 39 48 12 72 -20 18 -21 18 -58 -18 l-38
-37 -204 205 -204 204 27 29 c32 34 33 43 7 67 -20 18 -21 18 -53 -13 l-33
-32 -29 30 c-34 35 -37 36 -58 12z m158 -212 c67 -68 68 -70 33 -55 -43 17
-163 20 -205 4 -23 -8 -16 2 37 55 35 37 65 66 65 66 0 0 32 -32 70 -70z m12
-115 c22 -9 33 -19 27 -25 -12 -11 -348 -168 -352 -164 -2 1 1 18 8 37 15 49
81 121 132 146 51 25 132 28 185 6z m255 -297 c-69 -69 -72 -71 -57 -36 8 22
15 67 15 108 0 41 -7 86 -15 108 -15 35 -12 33 57 -35 l73 -73 -73 -72z m-632
166 c-13 -34 -13 -155 0 -191 9 -23 -1 -16 -52 34 l-63 63 60 60 c33 33 61 60
62 60 1 0 -2 -12 -7 -26z m526 -41 c18 -98 -18 -184 -105 -250 -72 -56 -74
-46 -16 105 86 225 84 220 101 198 7 -11 17 -35 20 -53z m-131 40 c-4 -10 -21
-56 -38 -103 l-32 -85 -3 48 -3 47 -77 1 -77 0 110 54 c124 60 130 62 120 38z
m-172 -153 l37 0 0 -90 c0 -63 -4 -90 -12 -90 -52 0 -165 97 -187 162 l-11 31
68 -6 c37 -4 84 -7 105 -7z m207 -213 c0 -1 -30 -33 -68 -70 l-68 -67 -64 66
c-53 53 -60 63 -37 55 40 -15 166 -13 202 4 36 16 35 16 35 12z"/>
</g>
</svg>
